# xmcd CD database file generated by OrangeCD 5.2
#
# Track frame offsets:
#	150
#	11897
#	24924
#	38798
#	51224
#	65977
#	77681
#	91173
#	107691
#	120581
#	141458
#	157821
#	173686
#
# Disc length: 2494 seconds
#
# Revision: 3
# Processed by: cddbd v1.5.1PL0 Copyright (c) Steve Scherf et al.
# Submitted via: OrangeCD 5.2
#
DISCID=a309bc0d
DTITLE=Nancy Hays - Come Dance With Me
DYEAR=2001
DGENRE=Country
TTITLE0=One Thin Dime
TTITLE1=Never Been Rocked
TTITLE2=I'll Believe It When I Feel It
TTITLE3=Come Dance With Me
TTITLE4=Deep Down
TTITLE5=Dad
TTITLE6=That'll Keep Me Dreaming
TTITLE7=Leave The Light On
TTITLE8=Baby Don't Go
TTITLE9=Somewhere In Denver
TTITLE10=Ground I Walk On
TTITLE11=Hearts Will Be Hearts
TTITLE12=Back In Illinois
EXTD=
EXTT0=
EXTT1=
EXTT2=
EXTT3=
EXTT4=
EXTT5=
EXTT6=
EXTT7=
EXTT8=
EXTT9=
EXTT10=
EXTT11=
EXTT12=
PLAYORDER=
